<svg width="19" height="19" viewBox="0 0 19 19" fill="none" xmlns="http://www.w3.org/2000/svg">
<path d="M16.0527 0.75C17.2662 0.750035 18.25 1.73377 18.25 2.94727V16.0527C18.2499 17.2662 17.2662 18.2499 16.0527 18.25H2.94727C1.73377 18.25 0.750057 17.2662 0.75 16.0527V2.94727C0.750035 1.73377 1.73377 0.750035 2.94727 0.75H16.0527ZM12.7578 8.00195C12.1541 8.00195 11.7713 8.11266 11.5127 8.25098C11.2577 8.38735 11.069 8.57951 10.8975 8.83691L10.7979 8.98535C11.0631 8.85161 11.378 8.76953 11.748 8.76953C12.2867 8.76954 12.746 8.93088 13.1006 9.24023C13.442 9.53819 13.6251 9.92025 13.7266 10.2598C13.9194 10.9051 13.8721 11.6344 13.8721 11.8242V14.9863H15.0713V11.7119C15.0713 10.8887 15.065 9.93123 14.752 9.17676C14.6038 8.81977 14.398 8.54105 14.1133 8.34668C13.8297 8.15317 13.4082 8.00196 12.7578 8.00195ZM8.3877 14.9863H9.52344V11.25L9.52637 11.2168C9.53604 11.1075 9.55283 10.967 9.58301 10.8086L9.52344 10.8994V8.12793H8.3877V14.9863ZM4.56543 14.9863H5.70117V8.12793H4.56543V14.9863ZM5.13379 4.01367C4.60731 4.01367 4.17969 4.44032 4.17969 4.9668C4.17977 5.4932 4.60736 5.91992 5.13379 5.91992C5.66008 5.91972 6.08683 5.49309 6.08691 4.9668C6.08691 4.44044 5.6601 4.01387 5.13379 4.01367Z" fill="#EAA7C8" stroke="#262626" stroke-width="1.5"/>
</svg>
