<svg width="22" height="18" viewBox="0 0 22 18" fill="none" xmlns="http://www.w3.org/2000/svg">
<path d="M10.596 8.48125L2.59516 1.87731C2.89148 1.69201 3.23496 1.58824 3.59189 1.58824H18.4082C18.7651 1.58824 19.1086 1.692 19.405 1.87731L11.4041 8.48125C11.1684 8.68137 10.8317 8.67395 10.596 8.48125ZM20.2873 3.00389L12.2123 9.66713C11.8554 9.9636 11.4244 10.1118 11.0001 10.1118C10.569 10.1118 10.1447 9.9636 9.78781 9.66713L1.71286 3.00389C1.61857 3.25589 1.57143 3.53014 1.57143 3.81177V14.1882C1.57143 15.4112 2.48062 16.4118 3.59184 16.4118H18.4082C19.5194 16.4118 20.4286 15.4112 20.4286 14.1882V3.81177C20.4286 3.53012 20.3815 3.25587 20.2873 3.00389Z" fill="#EAA7C8"/>
<path d="M20.4286 3.81177C20.4286 3.53012 20.3815 3.25587 20.2873 3.00389L12.2123 9.66713C11.8554 9.9636 11.4244 10.1118 11.0001 10.1118C10.569 10.1118 10.1447 9.9636 9.78781 9.66713L1.71286 3.00389C1.61857 3.25589 1.57143 3.53014 1.57143 3.81177V14.1882L1.58166 14.4151C1.67883 15.4582 2.43849 16.2938 3.38635 16.4004L3.59184 16.4118H18.4082C19.4498 16.4118 20.3142 15.5325 20.4183 14.4151L20.4286 14.1882V3.81177ZM3.59189 1.58824C3.23496 1.58824 2.89148 1.69201 2.59516 1.87731L10.596 8.48125C10.8317 8.67395 11.1684 8.68137 11.4041 8.48125L19.405 1.87731C19.1086 1.692 18.7651 1.58824 18.4082 1.58824H3.59189ZM22 14.1886C21.9998 16.1586 20.5103 18 18.408 18H3.59198C1.55536 18 0.093533 16.2717 0.00409226 14.3727L0 14.1886V3.81135L0.0143229 3.46599C0.043736 3.12042 0.118881 2.77537 0.24349 2.44233L0.374442 2.09387L0.52381 1.58824C0.52381 1.58824 0.594513 1.28995 0.713077 1.18807C0.831641 1.0862 1.04762 1.05882 1.04762 1.05882L1.44252 0.731043L1.76888 0.52631C2.30366 0.192039 2.93185 0 3.59198 0H18.408C19.0683 0 19.6972 0.191785 20.2321 0.52631L20.5575 0.731043L20.9524 1.05882L21.2869 1.18807L21.4762 1.58824L21.6266 2.09283L21.7575 2.44233C21.9238 2.88671 22 3.35258 22 3.81135V14.1886Z" fill="#262626"/>
</svg>
