<svg width="16" height="21" viewBox="0 0 16 21" fill="none" xmlns="http://www.w3.org/2000/svg">
<path d="M8 0.75C12.0284 0.75 15.2499 4.13236 15.25 8.24316C15.25 8.97267 15.1886 9.60867 15.001 10.2686C14.8147 10.9235 14.5135 11.567 14.0732 12.3252C13.2109 13.8102 11.7141 15.8966 9.2666 19.5488L9.26465 19.5469C8.66388 20.4824 7.30102 20.4834 6.7002 19.5479V19.5488C4.25156 15.8949 2.76314 13.8095 1.9082 12.3223C1.47179 11.5631 1.17478 10.9195 0.992188 10.2646C0.808402 9.60552 0.75 8.97076 0.75 8.24316C0.75013 4.13496 3.93523 0.75 8 0.75ZM8 6.18359C6.92259 6.18359 6.04212 7.07966 6.04199 8.24316C6.04199 9.43567 6.91653 10.3027 8 10.3027C9.05564 10.3027 9.95801 9.42945 9.95801 8.24316C9.95788 7.0859 9.04954 6.18359 8 6.18359Z" fill="#EAA7C8" stroke="#262626" stroke-width="1.5"/>
</svg>
