<svg width="37" height="37" viewBox="0 0 37 37" fill="none" xmlns="http://www.w3.org/2000/svg">
<path d="M29.6982 1.25C33.0357 1.25 35.75 3.96332 35.75 7.2998V29.6982C35.75 32.9318 33.2045 35.5782 30.0107 35.7402L29.7002 35.748L7.2998 35.75C3.96208 35.75 1.25002 33.0379 1.25 29.7002V7.2998C1.25002 3.96208 3.96208 1.25002 7.2998 1.25H29.6982ZM18.5 11.751C14.7793 11.751 11.751 14.7804 11.751 18.5C11.751 22.2208 14.7804 25.249 18.5 25.249C22.2209 25.249 25.249 22.221 25.249 18.5C25.249 14.7793 22.2196 11.751 18.5 11.751ZM18.5 12.4502C21.8377 12.4502 24.5498 15.1623 24.5498 18.5C24.5498 21.8378 21.8378 24.5498 18.5 24.5498C15.1622 24.5498 12.4502 21.8378 12.4502 18.5C12.4502 15.1623 15.1623 12.4502 18.5 12.4502ZM28.2285 8.58398C28.1508 8.5519 28.0464 8.55182 27.9688 8.58398L27.9434 8.59375C27.9217 8.60216 27.9065 8.61077 27.8906 8.62109C27.8792 8.6285 27.8644 8.64056 27.8428 8.6582C27.7767 8.74101 27.749 8.82661 27.749 8.90039C27.749 8.97877 27.7789 9.06596 27.8477 9.14844C27.933 9.21814 28.0323 9.25097 28.0996 9.25098C28.1654 9.25098 28.2621 9.21752 28.3447 9.15234C28.3518 9.1441 28.3596 9.13629 28.3643 9.13086L28.3828 9.10938L28.3896 9.09863L28.4121 9.03125L28.4395 8.97559C28.4404 8.96937 28.4416 8.96362 28.4424 8.95801C28.4455 8.93689 28.447 8.92256 28.4482 8.91211C28.4505 8.89323 28.4502 8.89271 28.4502 8.90039C28.4502 8.91841 28.451 8.91783 28.4473 8.88379C28.4456 8.86856 28.4436 8.85008 28.4404 8.82617C28.4402 8.82453 28.4397 8.82288 28.4395 8.82129L28.4189 8.7793L28.3945 8.71094C28.3935 8.70914 28.3922 8.70602 28.3896 8.70215L28.3799 8.6875C28.3729 8.6794 28.366 8.67143 28.3545 8.6582C28.3327 8.64042 28.3182 8.62765 28.3066 8.62012C28.2905 8.6096 28.2762 8.6024 28.2588 8.5957L28.2441 8.58984L28.2285 8.58398Z" fill="#C73F3F" stroke="#262626" stroke-width="2.5"/>
</svg>
