<svg width="37" height="37" viewBox="0 0 37 37" fill="none" xmlns="http://www.w3.org/2000/svg">
<path d="M31.6055 1.25C33.8944 1.25007 35.7499 3.10562 35.75 5.39453V31.6055C35.7499 33.8944 33.8944 35.7499 31.6055 35.75H5.39453C3.10562 35.7499 1.25011 33.8944 1.25 31.6055V5.39453C1.25007 3.10562 3.10562 1.25007 5.39453 1.25H31.6055ZM25.0156 15.2549C23.7775 15.2549 22.969 15.4808 22.4072 15.7812C21.8515 16.0785 21.4461 16.497 21.0869 17.0361L19.9951 18.6738C20.6367 17.8922 21.6101 17.2891 22.9961 17.2891C24.0212 17.2891 24.8792 17.595 25.5371 18.1689C26.173 18.7239 26.5203 19.4399 26.7148 20.0908C27.0871 21.3366 26.9951 22.7444 26.9951 23.1484V29.7236H29.8916V22.9238C29.8916 21.2881 29.8832 19.3201 29.2344 17.7568C28.9239 17.009 28.4856 16.4084 27.8672 15.9863C27.2508 15.5656 26.3563 15.2549 25.0156 15.2549ZM16.0264 29.7236H18.7969V22.0117L18.8018 21.9561C18.8539 21.3668 19.0104 20.331 19.5234 19.3818L18.7969 20.4727V15.5068H16.0264V29.7236ZM8.38184 29.7236H11.1523V15.5068H8.38184V29.7236ZM9.7666 7.27637C8.57569 7.2765 7.61035 8.24265 7.61035 9.43359C7.61052 10.6244 8.57579 11.5897 9.7666 11.5898C10.9576 11.5898 11.9237 10.6245 11.9238 9.43359C11.9238 8.24257 10.9576 7.27637 9.7666 7.27637Z" fill="#9ED7E0" stroke="#262626" stroke-width="2.5"/>
</svg>
