<svg width="46" height="37" viewBox="0 0 46 37" fill="none" xmlns="http://www.w3.org/2000/svg">
<path d="M22.1552 17.4337L5.42624 3.85891C6.04583 3.47802 6.76401 3.26471 7.51032 3.26471H38.4899C39.2362 3.26471 39.9544 3.478 40.574 3.85891L23.845 17.4337C23.3521 17.845 22.6481 17.8298 22.1552 17.4337ZM42.4188 6.17467L25.5348 19.8713C24.7885 20.4807 23.8873 20.7854 23.0001 20.7854C22.0989 20.7854 21.2117 20.4807 20.4654 19.8713L3.58143 6.17467C3.38429 6.69267 3.28571 7.2564 3.28571 7.83529V29.1647C3.28571 31.6785 5.18676 33.7353 7.5102 33.7353H38.4898C40.8132 33.7353 42.7143 31.6785 42.7143 29.1647V7.83529C42.7143 7.25635 42.6159 6.69262 42.4188 6.17467Z" fill="#EB773C"/>
<path d="M42.7143 7.83529C42.7143 7.25635 42.6159 6.69262 42.4188 6.17467L25.5348 19.8713C24.7885 20.4807 23.8873 20.7854 23.0001 20.7854C22.0989 20.7854 21.2117 20.4807 20.4654 19.8713L3.58143 6.17467C3.38429 6.69267 3.28571 7.2564 3.28571 7.83529V29.1647L3.30711 29.631C3.51027 31.7751 5.09866 33.4928 7.08054 33.7119L7.5102 33.7353H38.4898C40.6678 33.7353 42.4752 31.928 42.6929 29.631L42.7143 29.1647V7.83529ZM7.51032 3.26471C6.76401 3.26471 6.04583 3.47802 5.42624 3.85891L22.1552 17.4337C22.6481 17.8298 23.3521 17.845 23.845 17.4337L40.574 3.85891C39.9544 3.478 39.2362 3.26471 38.4899 3.26471H7.51032ZM46 29.1656C45.9996 33.2148 42.8851 37 38.4895 37H7.51051C3.25212 37 0.195569 33.4474 0.00855655 29.5439L0 29.1656V7.83444L0.0299479 7.12454C0.0914479 6.41419 0.24857 5.70493 0.509115 5.02034L0.782924 4.30406L1.09524 3.26471C1.09524 3.26471 1.24307 2.65157 1.49098 2.44215C1.73889 2.23274 2.19048 2.17647 2.19048 2.17647L3.01618 1.5027L3.69857 1.08186C4.81675 0.394747 6.13023 0 7.51051 0H38.4895C39.8702 0 41.185 0.394225 42.3036 1.08186L42.9838 1.5027L43.8095 2.17647L44.509 2.44215L44.9048 3.26471L45.2192 4.30193L45.493 5.02034C45.8406 5.93379 45.9999 6.89141 46 7.83444V29.1656Z" fill="#262626"/>
</svg>
